<svg xmlns="http://www.w3.org/2000/svg" xmlns:xlink="http://www.w3.org/1999/xlink" viewBox="0 0 204.65 101.79"><defs><style>.cls-1{fill:none;}.cls-2{clip-path:url(#clip-path);}.cls-3{fill:#3d6885;}.cls-4{fill:#2b4b5f;}</style><clipPath id="clip-path"><rect class="cls-1" width="204.65" height="101.79"/></clipPath></defs><title>Asset 1</title><g id="Layer_2" data-name="Layer 2"><g id="Layer_1-2" data-name="Layer 1"><g class="cls-2"><path class="cls-3" d="M155.93,22.22c2.55,6.09,11.2,10.45,14.57,17,3.23,6.31,5.82,20.54-2.75,31.46-6.86,8.74-35.25,32.06-68.18,13.68C89.2,76.68,84.07,69.05,77.66,65.26c-5.41-3.2-15.42-6.19-27.42-5.74C26.91,60.4,7.09,82.71,0,70.22c6.86,12.09,34-17,57.12-14.44,4.2.09,4,.49,9.46,1.26a42.93,42.93,0,0,1,12,3.56c11.08,5,19.53,14,21.87,16.62,1.47.69,1.73.36,2.27,0,4-2.73,16.52-18.36,34-14.21-12.25-2.92-35.72,16.31-27.47,19.49.68.26.16.14.85.38,23.41,8.42,45.34-8.47,50.69-12.73,1.8-1.43,4.37-3.59,5.66-5.84a24.81,24.81,0,0,0,1.92-7.59c.53-8.59-3.11-20.59-7.25-26.16-1.54-2.07-5.33-5-5.13-8.33"/><path class="cls-3" d="M156.63,22c1.32.48-3.07,2-4.81,2.4S139.7,11.55,139.57,11s8.13-.27,8.13-.27-2.81-9.66-3-10.64,12.13,8.8,13.4,9.14,5.36-1.54,6-1.09,2.6,12.65.66,13.91-7.64,0-6.21-.8,4-9.05,2.59-7.58-3.4,5.54-4.16,4.51S150.63,6.57,150,6.79s2.81,9.27,3.52,10.41-8.89-2.56-8.69-2.35c2.23,2.24,11.77,7.16,11.77,7.16"/><path class="cls-3" d="M195.46,44.95s-10.11,18.2-23.1,17.95c-3.77-.07-5.09-6.57.76-5.64,11,1.74,16-6.71,22.34-12.3"/><path class="cls-3" d="M51.22,63.7c-.95-1,3.63-.32,5.38.11s4.74,17,4.58,17.59-7.32-3.55-7.32-3.55-2,9.86-2.29,10.82S44.92,75.24,44,74.35s-5.46-1.14-5.79-1.81,3.59-12.4,5.89-12.61,6.77,3.54,5.12,3.59S41.4,69.64,43.36,69,49,65.7,49.14,67s.2,13.18.83,13.27,1.82-9.51,1.73-10.85,6.68,6.4,6.6,6.14c-.94-3-7.08-11.82-7.08-11.82"/><path class="cls-3" d="M151.82,86c-1.39.21,1.76-3.19,3.1-4.39s16.76,5.59,17.14,6-7,4.09-7,4.09,7,7.18,7.69,7.94-14.85-2-16.13-1.7-4,3.89-4.74,3.78-8.27-9.92-7.16-11.94,6.72-3.63,5.85-2.24.72,9.88,1.3,7.9.38-6.49,1.53-5.93,11,7.21,11.46,6.73-6.87-6.83-8-7.51,9-2,8.77-2c-3-.92-13.75-.74-13.75-.74"/><path class="cls-4" d="M192.09,77.94a26.63,26.63,0,0,0,8.09-4.58,15,15,0,0,0,3.22-3.57,6.53,6.53,0,0,0,1.24-3.24,1.93,1.93,0,0,0-1.86-1.87c-.54,0-1.41.71-2.62,2.14A22.22,22.22,0,0,1,197,70a23,23,0,0,1-6.3,3.49A20.62,20.62,0,0,1,184,74.55q-9.08,0-14.39-6.36t-5.31-17.31q0-11,5.31-17.74a16.72,16.72,0,0,1,13.8-6.77,16.34,16.34,0,0,1,8.13,2,17.75,17.75,0,0,1,6.19,6,14.89,14.89,0,0,1,1.25,2.45c.56,1.37,1.29,2.05,2.2,2.05a1.23,1.23,0,0,0,1.06-.4,2.8,2.8,0,0,0,.29-1.54,56,56,0,0,0-.29-6.52,6.23,6.23,0,0,0-.92-3.08q-1.58-1.87-6.52-3.4a35,35,0,0,0-10.44-1.54,29.58,29.58,0,0,0-11.39,2.1,25.3,25.3,0,0,0-9,6.35A26.54,26.54,0,0,0,158.38,40a33.49,33.49,0,0,0-1.85,11.42q0,12.81,7.09,20.42t19,7.61a28.81,28.81,0,0,0,9.48-1.5M122.66,56.63q14.82-.25,22.83-5.12t8-13.62q0-7.25-5.45-10.75t-16.79-3.5H114.85a5.56,5.56,0,0,0-2.48.39,1.34,1.34,0,0,0-.68,1.26q0,1,1.62,1.87a6.93,6.93,0,0,1,2,1.32,3.16,3.16,0,0,1,.57,1.28,12.6,12.6,0,0,1,.17,2.38V69.26a10,10,0,0,1-.29,2.82,2.46,2.46,0,0,1-1,1.35c-.29.2-.7.43-1.21.7q-1.87,1-1.87,2a1.34,1.34,0,0,0,.68,1.28,5.83,5.83,0,0,0,2.48.37H124.9a5.73,5.73,0,0,0,2.47-.37,1.32,1.32,0,0,0,.68-1.28q0-1-1.87-1.87l-.15-.07c-.27-.12-.62-.27-1.06-.44a6.07,6.07,0,0,1-1.5-.77,3,3,0,0,1-.62-1.3,11.86,11.86,0,0,1-.18-2.43Zm0-22.2q0-4,1.59-5.42t5.88-1.46q7.87,0,11.93,2.75a9.11,9.11,0,0,1,4.06,8.06q0,6.56-6.06,10.22t-17.41,4ZM95.73,77.94a26.58,26.58,0,0,0,8.09-4.58A14.91,14.91,0,0,0,107,69.79a6.51,6.51,0,0,0,1.24-3.24,1.93,1.93,0,0,0-1.87-1.87c-.54,0-1.41.71-2.62,2.14A22.27,22.27,0,0,1,100.68,70a23,23,0,0,1-6.3,3.49,20.58,20.58,0,0,1-6.77,1.08q-9.08,0-14.39-6.36T67.9,50.88q0-11,5.31-17.74A16.73,16.73,0,0,1,87,26.37a16.34,16.34,0,0,1,8.13,2,17.7,17.7,0,0,1,6.19,6,15.2,15.2,0,0,1,1.25,2.45q.84,2.05,2.2,2.05a1.24,1.24,0,0,0,1.06-.4,2.82,2.82,0,0,0,.29-1.54,56.39,56.39,0,0,0-.29-6.52,6.28,6.28,0,0,0-.92-3.08q-1.57-1.87-6.52-3.4A35,35,0,0,0,88,22.43a29.59,29.59,0,0,0-11.39,2.1,25.35,25.35,0,0,0-9,6.35A26.52,26.52,0,0,0,62,40a33.5,33.5,0,0,0-1.85,11.42q0,12.81,7.09,20.42t19,7.61a28.82,28.82,0,0,0,9.48-1.5M26.31,56.63q14.82-.25,22.84-5.12t8-13.62q0-7.25-5.45-10.75t-16.79-3.5H18.49A5.54,5.54,0,0,0,16,24a1.34,1.34,0,0,0-.68,1.26q0,1,1.62,1.87a7,7,0,0,1,2,1.32,3.09,3.09,0,0,1,.57,1.28,12.53,12.53,0,0,1,.16,2.38V69.26a10,10,0,0,1-.29,2.82,2.46,2.46,0,0,1-1,1.35q-.44.29-1.22.7-1.87,1-1.87,2A1.34,1.34,0,0,0,16,77.43a5.82,5.82,0,0,0,2.48.37h10A5.74,5.74,0,0,0,31,77.43a1.33,1.33,0,0,0,.68-1.28c0-.66-.62-1.28-1.87-1.87l-.15-.07c-.27-.12-.62-.27-1.06-.44A6.08,6.08,0,0,1,27.11,73a3,3,0,0,1-.62-1.3,11.59,11.59,0,0,1-.18-2.43Zm0-22.2q0-4,1.59-5.42t5.88-1.46q7.87,0,11.94,2.75a9.11,9.11,0,0,1,4.06,8.06q0,6.56-6.06,10.22t-17.41,4Z"/><path class="cls-3" d="M71.42,62.39a70.18,70.18,0,0,0-14.1-2.79c-1.73,0-3.46-4-2-3.95,7.38.07,9.88.64,16.57,2.52,2.17.71,1.07,4.81-.49,4.22"/><path class="cls-3" d="M168,59.63c-.69,2.3-5,8.65-7.19,10.52-1,.82,2.11,5.33,3.37,4.33a27.18,27.18,0,0,0,6.28-8.19c1.09-2-1.52-8.74-2.46-6.66"/></g></g></g></svg>