<?xml version="1.0" encoding="utf-8"?>
<!-- Generator: Adobe Illustrator 19.0.0, SVG Export Plug-In . SVG Version: 6.00 Build 0)  -->
<svg version="1.1" id="Layer_1" xmlns="http://www.w3.org/2000/svg" xmlns:xlink="http://www.w3.org/1999/xlink" x="0px" y="0px"
	 viewBox="0 0 216 144" enable-background="new 0 0 216 144" xml:space="preserve">
<g>
	<defs>
		<rect id="SVGID_1_" x="4" y="10.4" width="204.6" height="101.8"/>
	</defs>
	<clipPath id="SVGID_2_">
		<use xlink:href="#SVGID_1_"  overflow="visible"/>
	</clipPath>
	<path clip-path="url(#SVGID_2_)" fill="#9EC390" d="M159.9,32.6c2.5,6.1,11.2,10.5,14.6,17c3.2,6.3,5.8,20.5-2.8,31.5
		c-6.9,8.7-35.2,32.1-68.2,13.7C93.2,87,88.1,79.4,81.7,75.6c-5.4-3.2-15.4-6.2-27.4-5.7C30.9,70.8,11.1,93.1,4,80.6
		c6.9,12.1,34-17,57.1-14.4c4.2,0.1,4,0.5,9.5,1.3c5.2,0.7,9,2.2,12,3.6c11.1,5,19.5,14,21.9,16.6c1.5,0.7,1.7,0.4,2.3,0
		c4-2.7,16.5-18.4,34-14.2c-12.2-2.9-35.7,16.3-27.5,19.5c0.7,0.3,0.2,0.1,0.9,0.4c23.4,8.4,45.3-8.5,50.7-12.7
		c1.8-1.4,4.4-3.6,5.7-5.8c0.7-1.2,1.8-5.2,1.9-7.6c0.5-8.6-3.1-20.6-7.3-26.2C163.5,38.9,159.7,35.9,159.9,32.6"/>
	<path clip-path="url(#SVGID_2_)" fill="#9EC390" d="M160.6,32.4c1.3,0.5-3.1,2-4.8,2.4c-1.9,0.5-12.1-12.9-12.2-13.4
		c-0.1-0.6,8.1-0.3,8.1-0.3s-2.8-9.7-3-10.6c-0.2-1,12.1,8.8,13.4,9.1c1.3,0.3,5.4-1.5,6-1.1c0.6,0.4,2.6,12.6,0.7,13.9
		c-1.9,1.3-7.6,0-6.2-0.8c1.4-0.8,4-9.1,2.6-7.6c-1.5,1.5-3.4,5.5-4.2,4.5c-0.8-1-6.3-11.6-6.9-11.4c-0.6,0.2,2.8,9.3,3.5,10.4
		c0.7,1.1-8.9-2.6-8.7-2.4C151.1,27.5,160.6,32.4,160.6,32.4"/>
	<path clip-path="url(#SVGID_2_)" fill="#9EC390" d="M199.5,55.3c0,0-10.1,18.2-23.1,17.9c-3.8-0.1-5.1-6.6,0.8-5.6
		C188.1,69.4,193.1,60.9,199.5,55.3"/>
	<path clip-path="url(#SVGID_2_)" fill="#9EC390" d="M55.2,74.1c-0.9-1,3.6-0.3,5.4,0.1c1.9,0.5,4.7,17,4.6,17.6
		c-0.1,0.6-7.3-3.5-7.3-3.5s-2,9.9-2.3,10.8c-0.3,1-6.6-13.4-7.6-14.3c-1-0.9-5.5-1.1-5.8-1.8c-0.3-0.7,3.6-12.4,5.9-12.6
		c2.3-0.2,6.8,3.5,5.1,3.6c-1.6,0.1-7.8,6.1-5.8,5.5c2-0.6,5.6-3.3,5.8-2c0.2,1.3,0.2,13.2,0.8,13.3c0.6,0.1,1.8-9.5,1.7-10.9
		c-0.1-1.3,6.7,6.4,6.6,6.1C61.4,82.9,55.2,74.1,55.2,74.1"/>
	<path clip-path="url(#SVGID_2_)" fill="#9EC390" d="M155.8,96.4c-1.4,0.2,1.8-3.2,3.1-4.4c1.4-1.3,16.8,5.6,17.1,6
		c0.4,0.4-7,4.1-7,4.1s7,7.2,7.7,7.9c0.7,0.8-14.9-2-16.1-1.7c-1.3,0.3-4,3.9-4.7,3.8c-0.7-0.1-8.3-9.9-7.2-11.9
		c1.1-2,6.7-3.6,5.8-2.2c-0.9,1.4,0.7,9.9,1.3,7.9c0.6-2,0.4-6.5,1.5-5.9c1.2,0.6,11,7.2,11.5,6.7c0.4-0.5-6.9-6.8-8-7.5
		c-1.2-0.7,9-2,8.8-2C166.5,96.2,155.8,96.4,155.8,96.4"/>
	<path clip-path="url(#SVGID_2_)" fill="#439639" d="M196.1,88.3c2.9-1,5.6-2.5,8.1-4.6c1.3-1.1,2.4-2.3,3.2-3.6
		c0.8-1.3,1.2-2.4,1.2-3.2c0-0.5-0.2-0.9-0.6-1.3c-0.4-0.4-0.8-0.6-1.3-0.6c-0.5,0-1.4,0.7-2.6,2.1c-1.2,1.4-2.2,2.5-3.1,3.2
		c-2.1,1.6-4.2,2.8-6.3,3.5c-2.1,0.7-4.3,1.1-6.8,1.1c-6.1,0-10.9-2.1-14.4-6.4c-3.5-4.2-5.3-10-5.3-17.3c0-7.3,1.8-13.2,5.3-17.7
		c3.5-4.5,8.1-6.8,13.8-6.8c3,0,5.7,0.7,8.1,2c2.4,1.4,4.5,3.4,6.2,6c0.4,0.6,0.8,1.5,1.2,2.5c0.6,1.4,1.3,2.1,2.2,2.1
		c0.5,0,0.9-0.1,1.1-0.4c0.2-0.3,0.3-0.8,0.3-1.5c0-2.8-0.1-4.9-0.3-6.5c-0.2-1.6-0.5-2.6-0.9-3.1c-1.1-1.2-3.2-2.4-6.5-3.4
		c-3.3-1-6.8-1.5-10.4-1.5c-4.2,0-8,0.7-11.4,2.1c-3.4,1.4-6.4,3.5-9,6.3c-2.5,2.7-4.3,5.7-5.6,9.1c-1.2,3.4-1.8,7.2-1.8,11.4
		c0,8.5,2.4,15.3,7.1,20.4c4.7,5.1,11.1,7.6,19,7.6C190,89.8,193.2,89.3,196.1,88.3 M126.7,67c9.9-0.2,17.5-1.9,22.8-5.1
		c5.3-3.2,8-7.8,8-13.6c0-4.8-1.8-8.4-5.4-10.7c-3.6-2.3-9.2-3.5-16.8-3.5h-16.4c-1.2,0-2,0.1-2.5,0.4c-0.5,0.3-0.7,0.7-0.7,1.3
		c0,0.7,0.5,1.3,1.6,1.9c1.1,0.6,1.7,1,2,1.3c0.3,0.3,0.5,0.8,0.6,1.3c0.1,0.5,0.2,1.3,0.2,2.4v37.1c0,1.3-0.1,2.2-0.3,2.8
		c-0.2,0.6-0.5,1.1-1,1.4c-0.3,0.2-0.7,0.4-1.2,0.7c-1.2,0.7-1.9,1.4-1.9,2c0,0.6,0.2,1,0.7,1.3c0.5,0.2,1.3,0.4,2.5,0.4h10.1
		c1.2,0,2-0.1,2.5-0.4c0.5-0.2,0.7-0.7,0.7-1.3c0-0.7-0.6-1.3-1.9-1.9l-0.1-0.1c-0.3-0.1-0.6-0.3-1.1-0.4c-0.8-0.3-1.3-0.6-1.5-0.8
		c-0.3-0.3-0.5-0.8-0.6-1.3c-0.1-0.5-0.2-1.3-0.2-2.4V67z M126.7,44.8c0-2.6,0.5-4.4,1.6-5.4c1.1-1,3-1.5,5.9-1.5
		c5.2,0,9.2,0.9,11.9,2.7s4.1,4.5,4.1,8.1c0,4.4-2,7.8-6.1,10.2c-4,2.4-9.8,3.8-17.4,4V44.8z M99.7,88.3c2.9-1,5.6-2.5,8.1-4.6
		c1.3-1.1,2.4-2.3,3.2-3.6c0.8-1.3,1.2-2.4,1.2-3.2c0-0.5-0.2-0.9-0.6-1.3c-0.4-0.4-0.8-0.6-1.3-0.6c-0.5,0-1.4,0.7-2.6,2.1
		c-1.2,1.4-2.2,2.5-3.1,3.2c-2.1,1.6-4.2,2.8-6.3,3.5c-2.1,0.7-4.3,1.1-6.8,1.1c-6.1,0-10.9-2.1-14.4-6.4c-3.5-4.2-5.3-10-5.3-17.3
		c0-7.3,1.8-13.2,5.3-17.7c3.5-4.5,8.1-6.8,13.8-6.8c3,0,5.7,0.7,8.1,2c2.4,1.4,4.5,3.4,6.2,6c0.4,0.6,0.8,1.5,1.2,2.5
		c0.6,1.4,1.3,2.1,2.2,2.1c0.5,0,0.9-0.1,1.1-0.4c0.2-0.3,0.3-0.8,0.3-1.5c0-2.8-0.1-4.9-0.3-6.5c-0.2-1.6-0.5-2.6-0.9-3.1
		c-1-1.2-3.2-2.4-6.5-3.4c-3.3-1-6.8-1.5-10.4-1.5c-4.2,0-8,0.7-11.4,2.1c-3.4,1.4-6.4,3.5-9,6.3c-2.5,2.7-4.3,5.7-5.5,9.1
		c-1.2,3.4-1.8,7.2-1.8,11.4c0,8.5,2.4,15.3,7.1,20.4c4.7,5.1,11.1,7.6,19,7.6C93.7,89.8,96.9,89.3,99.7,88.3 M30.3,67
		c9.9-0.2,17.5-1.9,22.8-5.1c5.3-3.2,8-7.8,8-13.6c0-4.8-1.8-8.4-5.5-10.7c-3.6-2.3-9.2-3.5-16.8-3.5H22.5c-1.2,0-2,0.1-2.5,0.4
		c-0.5,0.3-0.7,0.7-0.7,1.3c0,0.7,0.5,1.3,1.6,1.9c1.1,0.6,1.7,1,2,1.3c0.3,0.3,0.5,0.8,0.6,1.3c0.1,0.5,0.2,1.3,0.2,2.4v37.1
		c0,1.3-0.1,2.2-0.3,2.8c-0.2,0.6-0.5,1.1-1,1.4c-0.3,0.2-0.7,0.4-1.2,0.7c-1.2,0.7-1.9,1.4-1.9,2c0,0.6,0.2,1,0.7,1.3
		c0.5,0.2,1.3,0.4,2.5,0.4h10c1.2,0,2-0.1,2.5-0.4c0.5-0.2,0.7-0.7,0.7-1.3c0-0.7-0.6-1.3-1.9-1.9l-0.1-0.1
		c-0.3-0.1-0.6-0.3-1.1-0.4c-0.8-0.3-1.3-0.6-1.5-0.8c-0.3-0.3-0.5-0.8-0.6-1.3c-0.1-0.5-0.2-1.3-0.2-2.4V67z M30.3,44.8
		c0-2.6,0.5-4.4,1.6-5.4c1.1-1,3-1.5,5.9-1.5c5.2,0,9.2,0.9,11.9,2.7s4.1,4.5,4.1,8.1c0,4.4-2,7.8-6.1,10.2c-4,2.4-9.8,3.8-17.4,4
		V44.8z"/>
	<path clip-path="url(#SVGID_2_)" fill="#9EC390" d="M75.4,72.8c-2.9-1.1-10.9-2.6-14.1-2.8c-1.7,0-3.5-4-2-3.9
		c7.4,0.1,9.9,0.6,16.6,2.5C78.1,69.3,77,73.4,75.4,72.8"/>
	<path clip-path="url(#SVGID_2_)" fill="#9EC390" d="M172,70c-0.7,2.3-5,8.7-7.2,10.5c-1,0.8,2.1,5.3,3.4,4.3c2.9-2.3,5-5.8,6.3-8.2
		C175.6,74.6,173,67.9,172,70"/>
</g>
</svg>
